<svg xmlns="http://www.w3.org/2000/svg" viewBox="37.5 65 200 203.8"><defs><style>.cls-1,.cls-17,.cls-6{fill:#fff;}.cls-1,.cls-3,.cls-4{stroke:#000;stroke-width:4px;}.cls-1,.cls-16,.cls-17,.cls-18,.cls-19,.cls-21,.cls-3,.cls-4,.cls-5{stroke-miterlimit:10;}.cls-2{fill:#15d4ff;}.cls-3{fill:#d8d8d8;}.cls-4{fill:#a52d2d;}.cls-16,.cls-18,.cls-19,.cls-20,.cls-21,.cls-5{fill:none;}.cls-5{stroke:#fff;}.cls-18,.cls-5{stroke-width:2px;}.cls-7{font-size:12px;fill:#7c7c7c;font-family:MyriadPro-Regular, Myriad Pro;}.cls-8{letter-spacing:0.01em;}.cls-9{letter-spacing:-0.04em;}.cls-10,.cls-11,.cls-12,.cls-13{fill:#000;}.cls-11{letter-spacing:0em;}.cls-12{letter-spacing:0em;}.cls-13{letter-spacing:-0.01em;}.cls-14{letter-spacing:0em;}.cls-15{letter-spacing:-0.01em;}.cls-16,.cls-17,.cls-18,.cls-19,.cls-20,.cls-21{stroke:#15d4ff;}.cls-16,.cls-18,.cls-20,.cls-21{stroke-linecap:round;}.cls-16,.cls-17,.cls-19{stroke-width:3px;}.cls-20{stroke-linejoin:round;}.cls-20,.cls-21{stroke-width:6px;}</style></defs><g id="Vrstva_3" data-name="Vrstva 3"><path class="cls-16" d="M230.93,290c0,17.7,26.56,17.7,26.56,0,0,17.7,26.55,17.7,26.55,0" transform="translate(-120 -81.24)"/><path class="cls-17" d="M262,291.6l4.34-5a6,6,0,0,0-4.53-9.93h-8.68a6,6,0,0,0-4.53,9.93l4.33,5A6,6,0,0,0,262,291.6Z" transform="translate(-120 -81.24)"/><path class="cls-18" d="M193.66,295c-5.62-1.28-30.13-1.79-43.92,10.72" transform="translate(-120 -81.24)"/><path class="cls-18" d="M193.66,300.08c-5.76.21-29.58,6-39.69,21.65" transform="translate(-120 -81.24)"/><path class="cls-18" d="M193.66,306.06c-5.5,1.72-26.95,13.59-32.59,31.33" transform="translate(-120 -81.24)"/><path class="cls-18" d="M320.69,295c5.62-1.28,30.13-1.79,43.92,10.72" transform="translate(-120 -81.24)"/><path class="cls-18" d="M320.69,300.08c5.76.21,29.58,6,39.69,21.65" transform="translate(-120 -81.24)"/><path class="cls-18" d="M320.69,306.06c5.5,1.72,27,13.59,32.59,31.33" transform="translate(-120 -81.24)"/></g><g id="Vrstva_5" data-name="Vrstva 5"><path class="cls-19" d="M245.34,303.25c0,15.84,24.77,15.84,24.77,0" transform="translate(-120 -81.24)"/><polyline class="cls-20" points="37.09 142.09 121.34 173.93 37.09 206.43"/><polyline class="cls-20" points="238.71 142.09 154.45 173.93 238.71 206.43"/><line class="cls-21" x1="102.43" y1="115.88" x2="111.57" y2="106.74"/><line class="cls-21" x1="164.91" y1="106.28" x2="174.05" y2="115.42"/></g></svg>