<svg xmlns="http://www.w3.org/2000/svg" viewBox="37.5 65 200 203.8"><defs><style>.cls-1,.cls-17,.cls-6{fill:#fff;}.cls-1,.cls-3,.cls-4{stroke:#000;stroke-width:4px;}.cls-1,.cls-16,.cls-17,.cls-18,.cls-19,.cls-20,.cls-21,.cls-3,.cls-4,.cls-5{stroke-miterlimit:10;}.cls-2{fill:#15d4ff;}.cls-3{fill:#d8d8d8;}.cls-4{fill:#a52d2d;}.cls-16,.cls-18,.cls-19,.cls-20,.cls-21,.cls-5{fill:none;}.cls-5{stroke:#fff;}.cls-18,.cls-5{stroke-width:2px;}.cls-7{font-size:12px;fill:#7c7c7c;font-family:MyriadPro-Regular, Myriad Pro;}.cls-8{letter-spacing:0.01em;}.cls-9{letter-spacing:-0.04em;}.cls-10,.cls-11,.cls-12,.cls-13{fill:#000;}.cls-11{letter-spacing:0em;}.cls-12{letter-spacing:0em;}.cls-13{letter-spacing:-0.01em;}.cls-14{letter-spacing:0em;}.cls-15{letter-spacing:-0.01em;}.cls-16,.cls-17,.cls-18,.cls-19,.cls-20,.cls-21{stroke:#15d4ff;}.cls-16,.cls-18,.cls-21{stroke-linecap:round;}.cls-16,.cls-17,.cls-19{stroke-width:3px;}.cls-20,.cls-21{stroke-width:6px;}</style></defs>
    <g id="Vrstva_3" data-name="Vrstva 3">
        <path class="cls-16" d="M230.93,290c0,17.7,26.56,17.7,26.56,0,0,17.7,26.55,17.7,26.55,0" transform="translate(-120 -81.24)"/>
        <path class="cls-17" d="M262,291.6l4.34-5a6,6,0,0,0-4.53-9.93h-8.68a6,6,0,0,0-4.53,9.93l4.33,5A6,6,0,0,0,262,291.6Z" transform="translate(-120 -81.24)"/>
        <path class="cls-18" d="M193.66,295c-5.62-1.28-30.13-1.79-43.92,10.72" transform="translate(-120 -81.24)"/>
        <path class="cls-18" d="M193.66,300.08c-5.76.21-29.58,6-39.69,21.65" transform="translate(-120 -81.24)"/>
        <path class="cls-18" d="M193.66,306.06c-5.5,1.72-26.95,13.59-32.59,31.33" transform="translate(-120 -81.24)"/>
        <path class="cls-18" d="M320.69,295c5.62-1.28,30.13-1.79,43.92,10.72" transform="translate(-120 -81.24)"/>
        <path class="cls-18" d="M320.69,300.08c5.76.21,29.58,6,39.69,21.65" transform="translate(-120 -81.24)"/>
        <path class="cls-18" d="M320.69,306.06c5.5,1.72,27,13.59,32.59,31.33" transform="translate(-120 -81.24)"/>
    </g>
    <g id="Vrstva_5" data-name="Vrstva 5">
        <path class="cls-19" d="M245.34,303.25c0,15.84,24.77,15.84,24.77,0" transform="translate(-120 -81.24)"/><path class="cls-20" d="M141.8,256.66A49.54,49.54,0,0,1,188.07,204a43.6,43.6,0,0,1,46.31,40.72,38.36,38.36,0,0,1-35.83,40.75A33.77,33.77,0,0,1,162.68,254a29.72,29.72,0,0,1,27.75-31.56,26.15,26.15,0,0,1,27.78,24.42,23,23,0,0,1-21.49,24.44,20.25,20.25,0,0,1-21.51-18.91,17.83,17.83,0,0,1,16.64-18.93,15.69,15.69,0,0,1,16.66,14.65,13.8,13.8,0,0,1-12.89,14.65,12.14,12.14,0,0,1-12.9-11.34,10.69,10.69,0,0,1,10-11.35,9.41,9.41,0,0,1,10,8.79,8.27,8.27,0,0,1-7.73,8.78,7.27,7.27,0,0,1-7.73-6.8,6.4,6.4,0,0,1,6-6.8,5.64,5.64,0,0,1,6,5.26,5,5,0,0,1-4.63,5.27,4.36,4.36,0,0,1-4.64-4.07" transform="translate(-120 -81.24)"/><path class="cls-20" d="M348.25,198.4a49.55,49.55,0,0,1,13.2,68.82,43.62,43.62,0,0,1-60.57,11.62,38.37,38.37,0,0,1-10.22-53.3,33.77,33.77,0,0,1,46.9-9,29.73,29.73,0,0,1,7.92,41.28,26.15,26.15,0,0,1-36.32,7,23,23,0,0,1-6.13-32,20.24,20.24,0,0,1,28.12-5.39,17.82,17.82,0,0,1,4.75,24.75,15.67,15.67,0,0,1-21.78,4.17,13.79,13.79,0,0,1-3.68-19.16A12.15,12.15,0,0,1,327.31,234a10.7,10.7,0,0,1,2.85,14.85,9.42,9.42,0,0,1-13.07,2.5,8.27,8.27,0,0,1-2.2-11.49A7.29,7.29,0,0,1,325,237.87a6.41,6.41,0,0,1,1.7,8.9,5.63,5.63,0,0,1-7.83,1.5,5,5,0,0,1-1.32-6.89,4.36,4.36,0,0,1,6.06-1.17" transform="translate(-120 -81.24)"/><line class="cls-21" x1="102.43" y1="115.88" x2="111.57" y2="106.74"/><line class="cls-21" x1="164.91" y1="106.28" x2="174.05" y2="115.42"/>
    </g>
</svg>