<svg xmlns="http://www.w3.org/2000/svg" viewBox="0 0 271.63 276.76"><defs><style>.cls-1,.cls-16,.cls-18,.cls-6{fill:#fff;}.cls-1,.cls-3,.cls-4{stroke:#000;stroke-width:4px;}.cls-1,.cls-16,.cls-17,.cls-18,.cls-19,.cls-20,.cls-21,.cls-3,.cls-4,.cls-5{stroke-miterlimit:10;}.cls-2{fill:#15d4ff;}.cls-3{fill:#d8d8d8;}.cls-4{fill:#a52d2d;}.cls-17,.cls-19,.cls-20,.cls-21,.cls-5{fill:none;}.cls-5{stroke:#fff;}.cls-19,.cls-5{stroke-width:2px;}.cls-7{font-size:12px;fill:#7c7c7c;font-family:MyriadPro-Regular, Myriad Pro;}.cls-8{letter-spacing:0.01em;}.cls-9{letter-spacing:-0.04em;}.cls-10,.cls-11,.cls-12,.cls-13{fill:#000;}.cls-11{letter-spacing:0em;}.cls-12{letter-spacing:0em;}.cls-13{letter-spacing:-0.01em;}.cls-14{letter-spacing:0em;}.cls-15{letter-spacing:-0.01em;}.cls-16,.cls-17,.cls-18,.cls-19,.cls-20,.cls-21{stroke:#15d4ff;}.cls-16,.cls-20{stroke-width:6px;}.cls-17,.cls-19,.cls-20{stroke-linecap:round;}.cls-17,.cls-18,.cls-21{stroke-width:3px;}</style></defs><g id="Vrstva_4" data-name="Vrstva 4"><path class="cls-1" d="M370.57,206c21-34.06,19.25-96.51,3.43-122.32,0,0-101.34,38.42-89,106.05Z" transform="translate(-120 -81.24)"/><path class="cls-2" d="M367.11,198.4c15.73-25.49,14.41-72.22,2.57-91.54,0,0-75.82,28.76-66.56,79.36Z" transform="translate(-120 -81.24)"/><path class="cls-1" d="M144.36,206c-21-34.06-19.26-96.51-3.43-122.32,0,0,101.33,38.42,89,106.05Z" transform="translate(-120 -81.24)"/><path class="cls-2" d="M147.81,198.4c-15.73-25.49-14.41-72.22-2.57-91.54,0,0,75.83,28.76,66.57,79.36Z" transform="translate(-120 -81.24)"/></g><g id="Vrstva_2" data-name="Vrstva 2"><rect class="cls-1" x="2" y="73.76" width="267.63" height="201" rx="12"/><path class="cls-3" d="M14,73.76H257.63a12,12,0,0,1,12,12v13a0,0,0,0,1,0,0H2a0,0,0,0,1,0,0v-13a12,12,0,0,1,12-12Z"/><path class="cls-4" d="M241.68,73.76h14.93a13,13,0,0,1,13,13v12a0,0,0,0,1,0,0H241.68a0,0,0,0,1,0,0v-25A0,0,0,0,1,241.68,73.76Z"/><line class="cls-5" x1="247.69" y1="79.26" x2="261.69" y2="93.26"/><line class="cls-5" x1="261.69" y1="79.26" x2="247.69" y2="93.26"/><rect class="cls-6" x="60.93" y="78.47" width="150.13" height="15.57" rx="7.79"/><text class="cls-7" transform="translate(66.92 89.51)"><tspan class="cls-8">ww</tspan><tspan class="cls-9" x="17.95" y="0">w</tspan><tspan x="26.32" y="0">.</tspan><tspan class="cls-10" x="28.8" y="0">helpe</tspan><tspan class="cls-11" x="57.14" y="0">r</tspan><tspan class="cls-12" x="61.11" y="0">nam</tspan><tspan class="cls-13" x="83.57" y="0">e</tspan><tspan class="cls-14" x="89.43" y="0">.</tspan><tspan class="cls-15" x="91.92" y="0">c</tspan><tspan x="97.22" y="0">om</tspan></text></g><g id="Vrstva_3" data-name="Vrstva 3"><ellipse class="cls-16" cx="73.66" cy="162.93" rx="48.55" ry="42.98"/><circle class="cls-2" cx="82.34" cy="166.76" r="29.96"/><circle class="cls-6" cx="95.14" cy="147" r="10.2"/><ellipse class="cls-16" cx="201.38" cy="162.93" rx="48.55" ry="42.98"/><circle class="cls-2" cx="192.69" cy="166.76" r="29.96"/><circle class="cls-6" cx="206.79" cy="147" r="10.2"/><path class="cls-17" d="M230.93,290c0,17.7,26.56,17.7,26.56,0,0,17.7,26.55,17.7,26.55,0" transform="translate(-120 -81.24)"/><path class="cls-18" d="M262,291.6l4.34-5a6,6,0,0,0-4.53-9.93h-8.68a6,6,0,0,0-4.53,9.93l4.33,5A6,6,0,0,0,262,291.6Z" transform="translate(-120 -81.24)"/><path class="cls-19" d="M193.66,295c-5.62-1.28-30.13-1.79-43.92,10.72" transform="translate(-120 -81.24)"/><path class="cls-19" d="M193.66,300.08c-5.76.21-29.58,6-39.69,21.65" transform="translate(-120 -81.24)"/><path class="cls-19" d="M193.66,306.06c-5.5,1.72-26.95,13.59-32.59,31.33" transform="translate(-120 -81.24)"/><path class="cls-19" d="M320.69,295c5.62-1.28,30.13-1.79,43.92,10.72" transform="translate(-120 -81.24)"/><path class="cls-19" d="M320.69,300.08c5.76.21,29.58,6,39.69,21.65" transform="translate(-120 -81.24)"/><path class="cls-19" d="M320.69,306.06c5.5,1.72,27,13.59,32.59,31.33" transform="translate(-120 -81.24)"/><line class="cls-20" x1="100.67" y1="111.54" x2="113.59" y2="111.54"/><line class="cls-20" x1="163.15" y1="111.08" x2="176.07" y2="111.08"/></g><g id="Vrstva_5" data-name="Vrstva 5"><path class="cls-21" d="M245.34,303.25c0,15.84,24.77,15.84,24.77,0" transform="translate(-120 -81.24)"/></g></svg>